<?xml version="1.0" encoding="utf-8"?>
<!-- Generator: Adobe Illustrator 24.1.2, SVG Export Plug-In . SVG Version: 6.00 Build 0)  -->
<svg version="1.1" id="Layer_1" xmlns="http://www.w3.org/2000/svg" xmlns:xlink="http://www.w3.org/1999/xlink" x="0px" y="0px"
	 viewBox="0 0 501 351.3" style="enable-background:new 0 0 501 351.3;" xml:space="preserve">
<style type="text/css">
	.st0{fill:#231F20;}
</style>
<g>
	<script  xmlns=""></script>
	<g>
		<path class="st0" d="M263.3,132.4c-4.2-4.8-10.2-7.2-17.8-7.2c-7.3,0-13.4,1.8-18.2,5.5c-4.7,3.5-8.1,7.4-10.3,11.5
			c-0.2,0.4-0.4,0.7-0.6,1.1v-8.8c0-2.8-0.7-4.9-2.1-6.2c-2.5-2.3-7.6-2.7-16.4-0.2c-3.9,1.1-9.5,2.8-16.7,5.2
			c-2.4,0.9-4.3,1.8-5.6,2.8c-1.7,1.2-2.6,3-2.6,5.2c0,1.8,0.9,3.3,2.5,4.1c1.3,0.6,3.1,0.9,5.7,0.9h4.7c2.2,0,2.6,0.8,2.8,1.1
			c0.4,0.8,0.9,2.5,0.9,5.9v50c0,4.2-0.2,7.3-0.5,9.2c-0.3,1.5-1,2.8-2.3,3.9c-1.4,1.1-3.8,2.1-7.4,3c-4.2,1.6-5,4.4-5,6.4
			c0,1.9,0.8,4.6,4.6,6.1c2.5,1,6.9,1.5,13.2,1.5l11.4-0.2l11.3,0.2c6.6,0,10.8-0.5,13.2-1.5c3.5-1.5,4.2-4.2,4.2-6.1
			c0-1.9-0.9-4.6-5.5-6.5c-3.5-0.8-5.9-1.7-7.2-2.9c-1.2-1.1-2-2.4-2.4-4c-0.4-1.9-0.6-5-0.6-9.3v-25.9c0-6.4,1-12,2.9-16.8
			c1.9-4.7,4.4-8.4,7.5-10.9c3-2.5,6-3.7,9.1-3.7c3.2,0,5.5,0.7,6.6,2c1.3,1.4,1.9,3.1,1.9,5.2c0,1.5-0.3,3-0.8,4.8
			c-0.5,3.9,0.4,7,2.8,9.2c2.3,2.1,5,3.2,8.2,3.2c4.9,0,8.7-2,11.3-5.8c2.5-3.6,3.7-7.9,3.7-12.8
			C269.6,143.6,267.5,137.2,263.3,132.4z"/>
		<path class="st0" d="M359.9,198.4c-1.6,0-3.1,0.9-4.7,2.7c-2.9,4.1-6.8,7.6-11.7,10.2c-4.8,2.7-10.5,4-16.9,4
			c-6,0-11.2-1.5-15.6-4.4c-4.4-2.9-7.8-6.6-10.1-11c-2.3-4.4-3.4-8.8-3.4-13c0-0.5,0.1-0.8,0.1-0.8c0.2-0.2,0.7-0.5,1.7-0.7l48.1-7
			c5.8-0.9,9.8-2.4,12.5-4.5c2.8-2.3,4.2-6.2,4.2-11.5c0-5.8-1.8-11.7-5.5-17.4c-3.6-5.6-8.8-10.3-15.3-13.9
			c-6.5-3.6-14.2-5.4-22.8-5.4c-9.2,0-17.9,2.3-25.9,6.7c-8,4.5-14.5,10.8-19.3,18.8c-4.7,8-7.1,17.4-7.1,27.9
			c0,10.1,2.1,19.5,6.1,27.8c4.1,8.4,10.1,15.2,17.9,20.3c7.8,5.1,17.2,7.6,27.8,7.6c11.3,0,21-2.7,28.6-8c7.6-5.3,13.2-12,16.5-20
			c0.4-0.8,0.6-1.7,0.6-2.5c0-1.6-0.5-3-1.6-4.1C363.6,199.3,362.2,198.4,359.9,198.4z M297.8,170.8c-1.4,0.2-2,0-2,0c0,0,0,0,0,0
			c-0.1-0.1-0.4-0.9-0.4-3.9c0-5.3,1.1-10.1,3.2-14.2c2.1-4.1,4.9-7.2,8.4-9.4c3.5-2.2,7-3.3,10.7-3.3c4.1,0,7.8,1.1,11,3.2
			c3.3,2.2,5.8,4.9,7.5,8.1c1.8,3.2,2.6,6.5,2.6,9.7c0,1.3-0.3,2.1-0.8,2.6c-0.4,0.3-1.5,1-4.4,1.5L297.8,170.8z"/>
		<path class="st0" d="M448.6,207.7c6.3-3.3,11.4-7.8,15.2-13.5c4.7-7,7.1-15.2,7.1-24.5c0-6.9-1.5-13.3-4.4-19.1
			c-2.4-4.7-5.6-8.8-9.6-12.4c4.4-1.6,8.1-4.1,11-7.4v0c3.7-4.2,5.6-9.3,5.6-15.2c0-3.2-1.2-6-3.7-8.2c-2.4-2.1-5.3-3.2-8.6-3.2
			c-3.3,0-6.1,1-8.4,2.9c-2.4,2-3.7,4.9-3.7,8.6c0,4.5-0.7,7.9-2,10c-1.2,1.8-3.2,2.7-6,2.7c-1.3,0-1.8-0.1-2-0.1
			c-6.4-1.9-12.9-2.8-19.4-2.8c-10,0-19,2-26.7,5.8c-7.8,3.9-13.9,9.2-18.2,15.9c-4.3,6.7-6.6,14.3-6.6,22.5
			c0,8.8,2.2,16.6,6.6,23.3c4.3,6.6,10.3,11.8,17.8,15.5c7.4,3.6,15.8,5.5,24.8,5.5c8.8,0.1,16,2.5,21.3,7.2
			c5.3,4.6,7.8,10.2,7.8,17.2c0,5.8-2.1,10.3-6.5,13.7c-4.5,3.5-10.3,5.3-17.3,5.4c-8.2,0-14.7-2-19.3-6.1c-3.4-3.1-5.2-7-5.8-11.9
			l-0.1-0.4c-1.3-3.9-3.4-7-6.4-9.1c-3-2.1-6.4-3.2-10-3.2c-3.6,0-6.7,1.1-9.1,3.3c-2.5,2.3-3.8,5.4-3.8,9.4c0,5,1.4,9.6,4,13.6
			c2.6,3.9,6.3,7.2,10.8,9.9c4.8,3.1,10.5,5.4,16.9,6.9c6.3,1.5,13,2.3,19.7,2.3c15.6,0,28.3-3.2,37.9-9.5
			c9.8-6.5,14.8-15.5,14.8-26.7c0-7.6-2.6-13.9-7.8-18.9C460.6,213,455.2,209.9,448.6,207.7z M443.4,174.8c0,7.4-2,13.4-6.1,17.9
			c-4,4.5-9.3,6.7-16,6.7c-7.6,0-13.7-3.1-18.5-9.3c-4.9-6.3-7.3-14.8-7.3-25.2c0-7.2,2.1-13,6.4-17.7c4.3-4.7,9.4-6.9,15.7-6.9
			c7.6,0,13.7,3.1,18.5,9.5C441,156.3,443.4,164.7,443.4,174.8z"/>
		<path class="st0" d="M127.6,88.3c-13.7-6-30-9.1-48.2-9.1c-3.6,0-9.4,0.1-17.3,0.4c-7.2,0.4-15.1,0.6-23.6,0.6
			c-3.7,0-6.4,0.4-8,1.3c-1.4,0.7-3,2.3-3,5.9c0,0.9,1.5,6.5,3.4,9.8c1.1,2,3.2,3.2,5.5,3.3c3.3,0,6.9,0,10.7,0
			c25.9-0.1,61.5-0.3,80.5,18.7c9,9,13.6,21.8,13.6,37.9c0,19.1-4.5,34.1-13.2,44.6c-8.7,10.4-21.6,15.6-38.3,15.6
			c-6.5,0-11-0.5-13.4-1.6c-0.7-0.3-2.9-1.3-2.9-6v-68c0-6.1-5-11.1-11.1-11.1h-5.8c-6.1,0-11.1,5-11.1,11.1l0,59.7
			c0,3.9-0.3,6.8-0.8,8.7c-0.5,1.6-1.3,2.9-2.7,3.8c-1.5,1.1-4.2,2.2-8.3,3.5c-1.7,0.7-3.1,1.7-4.3,2.9c-1.3,1.4-2,3-2,4.8
			c0,3.6,1.6,5.2,3,5.9c1.6,0.9,4.2,1.3,8,1.3c4.1,0,11.5,0.1,21.7,0.4c8.5,0.4,17.4,0.6,26.4,0.6c26.5,0,47.4-6.5,62.3-19.3
			c14.9-12.9,22.5-31.7,22.5-55.9c0-16.7-3.8-31.1-11.4-43C152.4,103.4,141.5,94.4,127.6,88.3z"/>
	</g>
</g>
</svg>
